<svg id="Group_414" data-name="Group 414" xmlns="http://www.w3.org/2000/svg" width="30.9" height="38.111" viewBox="0 0 30.9 38.111">
  <path id="Path_146" data-name="Path 146" d="M14.534,14.489l2.735.057a52.324,52.324,0,0,1,6.417-6.454A31.125,31.125,0,0,0,15.916,0,34.1,34.1,0,0,0,8.08,8.025,74.289,74.289,0,0,1,14.534,14.489Z" transform="translate(-0.433)" fill="#f1f1f1"/>
  <path id="Path_147" data-name="Path 147" d="M4.85,25.274a43.574,43.574,0,0,1,6.218-7.9c-2.243-2.584-4.24-5.035-7.618-6.152A15.68,15.68,0,0,0,.591,24.11Z" transform="translate(-0.014 -0.601)" fill="#f1f1f1"/>
  <path id="Path_148" data-name="Path 148" d="M20.98,17.177a72.54,72.54,0,0,1,6.208,8.12c1.41-.426,2.82-.861,4.23-1.287.776-5.243-.047-9-3.18-13.25A32.6,32.6,0,0,0,20.98,17.177Z" transform="translate(-1.125 -0.577)" fill="#f1f1f1"/>
  <path id="Path_149" data-name="Path 149" d="M23.131,27.324c-2.063-3.019-3.861-5.849-7.155-7.694-3.36,1.666-5.2,4.751-7.3,7.7a28.8,28.8,0,0,1,7.3,7.988A23.586,23.586,0,0,1,23.131,27.324Z" transform="translate(-0.465 -1.052)" fill="#f1f1f1"/>
  <path id="Path_150" data-name="Path 150" d="M12.786,39.6C10.391,33.461,6.492,30.129,0,28.88,2.669,34.9,6.388,37.984,12.786,39.6Z" transform="translate(0 -1.548)" fill="#f1f1f1"/>
  <path id="Path_151" data-name="Path 151" d="M18.84,39.656c6.549-1.7,10.287-4.6,13.07-10.836C25.588,29.88,21.244,33.836,18.84,39.656Z" transform="translate(-1.01 -1.545)" fill="#f1f1f1"/>
</svg>
