<?xml version="1.0" encoding="utf-8"?>
<!-- Generator: Adobe Illustrator 28.0.0, SVG Export Plug-In . SVG Version: 6.00 Build 0)  -->
<svg version="1.1" id="Layer_1" xmlns="http://www.w3.org/2000/svg" xmlns:xlink="http://www.w3.org/1999/xlink" x="0px" y="0px"
	 viewBox="0 0 345.1 345.1" style="enable-background:new 0 0 345.1 345.1;" xml:space="preserve">
<style type="text/css">
	.st0{fill:#FDFDFD;}
	.st1{fill:#594141;}
</style>
<g>
	<path class="st0" d="M170.4,21.4c1.3,0,2.7,0.1,4,0.1c2.8-3.5,6.1-6.6,9.5-9.5c-3.2-4.8-6.9-8.6-11.5-12
		c-4.5,3.3-8.3,7.3-11.6,11.8C164.2,14.9,167.4,18,170.4,21.4z"/>
	<path class="st0" d="M156.7,36.4c2.5-4.3,5.8-8,9.2-11.7c-3.3-3.8-6.3-7.4-11.2-9.1c-4.3,5.9-5.5,11.9-4.2,19
		C152.5,35.3,154.6,35.8,156.7,36.4z"/>
	<path class="st0" d="M178.9,24.5c3.4,3.8,6.4,7.7,9.2,12c2.1-0.6,4.2-1.3,6.2-1.9c1.1-7.7-0.1-13.3-4.7-19.6
		C185.5,17.6,182,20.8,178.9,24.5z"/>
	<path class="st0" d="M183,38.8c-3-4.5-5.7-8.6-10.6-11.4c-5,2.5-7.7,7-10.8,11.4c4.3,3.4,7.9,7,10.8,11.8
		C175.1,45.6,178.6,42.1,183,38.8z"/>
	<path class="st0" d="M168.4,56.2c-3.5-9.1-9.3-14-18.9-15.8C153.5,49.2,159,53.8,168.4,56.2z"/>
	<path class="st0" d="M175.9,56.3c9.7-2.5,15.2-6.8,19.3-16C185.8,41.8,179.4,47.7,175.9,56.3z"/>
	<path class="st0" d="M93.6,68.1c3.6-3.4,7.4-6.3,11.6-9.1c-0.6-2-1.2-4-2-5.9c-6-2.8-14.1,0.7-19.3,3.9
		C86.5,61.7,89.2,65,93.6,68.1z"/>
	<path class="st0" d="M124.9,70.9c-1.5-8.8-7.4-15.5-15.7-18.6C110.6,61.2,116.7,67.6,124.9,70.9z"/>
	<path class="st0" d="M235.8,51.7c-8.4,3.7-14.4,9.7-15.8,19.1C228.4,67.4,233.8,60.5,235.8,51.7z"/>
	<path class="st0" d="M260.7,57c-5.7-3.5-11.6-5.7-18.3-4.5c-2,1-2.2,4.5-2.9,6.4c4.1,2.9,7.9,6,11.5,9.4
		C255.2,64.9,257.9,61.6,260.7,57z"/>
	<path class="st0" d="M130.1,71.3c-0.2,1.8-0.3,3.7-0.5,5.5c7.6,1.8,14.6,2.6,21.4,6.8c8.5,4.6,14.9,12.6,17.2,22
		c2.5,8.6,3.1,17,4.3,25.8c3.1-13.7,2.8-30,12.5-41.1c7.8-9.2,18.5-12.1,30.1-12.9c-0.1-1.6-0.2-3.3-0.3-5
		c-11.8-0.6-23.3,3.5-31.8,11.7c-2.9,2.9-5.1,6.2-7.5,9.5c-0.1-10.7,0-21.5,0-32.2c-2-0.4-4-0.7-6.1-1.1c0,11.2-0.2,22.5,0.2,33.7
		C160.9,80.7,146,71.9,130.1,71.3z"/>
	<path class="st0" d="M80.5,86.1c3.2-3.4,6.5-6.6,9.9-9.7c0-1.3-0.1-2.5-0.1-3.8c-3.5-2.9-6.6-6.2-9.7-9.5
		c-4.7,3.1-8.4,7.1-11.8,11.6C72.3,79.2,75.9,82.7,80.5,86.1z"/>
	<path class="st0" d="M254.3,72.7c0,1.3,0.1,2.6,0.1,3.9c3.3,2.9,6.1,6.2,9.2,9.2c5.3-2.3,8.6-6.6,12.1-11c-3.4-4.8-7-8.3-12-11.4
		C260.6,66.5,257.7,69.8,254.3,72.7z"/>
	<path class="st0" d="M95.8,74.9c3.5,4.2,7.2,7.4,11.8,10.5c3.5-4.4,7.1-7.7,11.9-10.6c-4.8-2.7-8.3-6.5-11.9-10.5
		C102.7,66.8,99.2,70.6,95.8,74.9z"/>
	<path class="st0" d="M248.8,74.8c-3.3-4.2-7-7.9-11.8-10.5c-3.5,4-7.2,7.4-11.7,10.4c4.7,2.9,8.3,6.4,11.8,10.6
		C241.7,82.3,245.4,79.1,248.8,74.8z"/>
	<path class="st0" d="M115.2,84.7c-3.5,3.7-4.8,8.2-6.2,13c8.5-3.9,14-9.8,16-19.1C121.4,80.2,117.9,81.7,115.2,84.7z"/>
	<path class="st0" d="M219.9,78.8c1.2,8.7,7.4,15.2,15.3,18.6C234.3,88.4,228.1,81.8,219.9,78.8z"/>
	<path class="st0" d="M105.1,90.3c-4.1-2.8-7.9-5.8-11.7-9.1c-3.6,3.2-6.9,6.1-9.1,10.5c5.4,5.6,11.8,5.3,19,5.1
		C104,94.6,104.6,92.4,105.1,90.3z"/>
	<path class="st0" d="M250.9,81.3c-3.8,3.2-7.5,6.4-11.6,9.1c0.7,2.1,1.3,4.2,2.2,6.2c7.4,1.1,12.8-0.2,18.9-4.3
		C258,87.7,255.2,84.3,250.9,81.3z"/>
	<path class="st0" d="M277.7,181.7c-4.4-14.1-9.7-30.1-21.2-40.1c-15.4-13.1-34.5-19.9-54.1-23.8c-5.5-1-11.3-2.2-17-2.1
		c-1.7,6.2-2.8,12.6-4.1,18.9c1.6,1.9,3.4,3.8,4.7,5.9c-0.2,4.9-2.3,9.9-3.5,14.6c-2.1,7-3.5,14.3-6.2,21.1
		c-1.3-7.7-2.2-15.5-3.3-23.2c-0.2-6.4-8.5-9-8.9-15.3c-1.3-7.4-2.1-14.9-3.7-22.3c-18.7,1.4-37.6,6.1-54.4,14.5
		c-12.5,6.2-23.3,14.8-29.6,27.5c-17.2,35.5-17.9,75.8-11.5,114c2.4,10.6,4.4,24.4,12.4,32.4c7.9,8.6,22,11.5,30.2,18.6
		c6.6,5.6,7.6,14.2,10.1,22c3.1-0.4,6.2-0.9,9.3-1.4c-0.4-3.5-0.9-7-1.3-10.5c2.7-0.5,5.3-1,7.9-1.4c0.6,3.6,1.1,7.3,1.7,10.9
		c4.2-0.5,8.3-1,12.5-1.5c-0.2-3.5-0.3-7.1-0.4-10.6c2.6-0.3,5.1-0.6,7.7-0.9c0.3,3.5,0.7,7.1,1.1,10.6c4.1-0.2,8.1-0.3,12.2-0.4
		c0-3.7,0-7.4,0.1-11c2.6,0,5.2,0,7.8-0.1c0.3,3.7,0.5,7.5,0.6,11.2c4.1,0.1,8.2,0.2,12.3,0.2c0.2-3.5,0.4-7,0.7-10.5
		c2.4,0.1,4.8,0.2,7.1,0.6c1.9,2.8,0.6,7.6,0.5,10.8c4.1,0.4,8.1,0.9,12.2,1.4c0.8-3.6,1.5-7.2,2.3-10.7c2.6,0.4,5.1,0.8,7.6,1.3
		c-0.4,3.5-0.9,7-1.5,10.5c3.2,1,6.3,1.6,9.4,2.2c2-6.7,3-14.8,8-20.1c8.5-9.5,23.6-11.8,32.3-20.8c4.8-4.6,6.9-11.1,8.8-17.2
		c4-14.1,5.9-28.4,6.9-43.1C284.6,223.1,283.1,201.9,277.7,181.7z M146.5,237c0,10.4-1.7,22.1-7.2,31.1
		c-5.8,9.1-17.2,16.7-28.3,15.6c-15.3-1.2-27.9-14.5-31.6-28.8c-3.2-12.8-2.2-27.5,5-38.8c5.9-8.8,15.5-15.3,25.9-17
		c11.6-2.3,23.2,3.7,29.5,13.4C144.3,219.6,146.8,228.4,146.5,237z M191.2,296.4c-1,2.4-3.1,5.9-6.1,5.6c-4.9-1.7-7.1-7.9-11.1-11
		c-3.9-0.6-5.3,3.2-7.5,5.6c-1.7,2.2-4.9,5.8-8,5.2c-4.5-2.2-5.6-8.7-5.2-13.2c0.9-7.6,4-15.1,6.9-22.2c3.3-6.6,6.5-13.6,12.4-18.2
		c4.9,3.7,7.6,8.8,10.5,14.1c3.5,7,6.4,14.4,8.1,22C191.8,288.6,193,292.3,191.2,296.4z M259.3,268.1c-6.4,9.9-17.8,16.2-29.7,15.9
		c-8.9,0.4-17-5.3-21.7-12.6c-5.4-7.9-7.2-16.8-8.5-26.1c-1.3-7-0.4-14.5,0.8-21.5c3.5-12.8,14.6-22.5,27.5-24.8
		c7.1-1.2,14-1.1,20.1,3.2c12.6,9.2,20.3,24.8,19.9,40.4C267.1,251.4,264.1,260.6,259.3,268.1z"/>
	<path class="st1" d="M267.7,242.6c-0.6,8.8-3.6,18-8.4,25.5c-6.4,9.9-17.8,16.2-29.7,15.9c-8.9,0.4-17-5.3-21.7-12.6
		c-5.4-7.9-7.2-16.8-8.5-26.1c-1.3-7-0.4-14.5,0.8-21.5c3.5-12.8,14.6-22.5,27.5-24.8c7.1-1.2,14-1.1,20.1,3.2
		C260.4,211.4,268.1,227,267.7,242.6z"/>
	<path class="st1" d="M146.5,237c0,10.4-1.7,22.1-7.2,31.1c-5.8,9.1-17.2,16.7-28.3,15.6c-15.3-1.2-27.9-14.5-31.6-28.8
		c-3.2-12.8-2.2-27.5,5-38.8c5.9-8.8,15.5-15.3,25.9-17c11.6-2.3,23.2,3.7,29.5,13.4C144.3,219.6,146.8,228.4,146.5,237z"/>
</g>
</svg>
