<svg id="eSzo8q6LFgZ1" xmlns="http://www.w3.org/2000/svg" xmlns:xlink="http://www.w3.org/1999/xlink" viewBox="0 0 345.1 345.1" shape-rendering="geometricPrecision" text-rendering="geometricPrecision">
<style><![CDATA[
#eSzo8q6LFgZ23_ts {
  animation: eSzo8q6LFgZ23_ts__ts 10000ms linear infinite normal forwards;
}
@keyframes eSzo8q6LFgZ23_ts__ts {
  0% {
    transform: translate(233.238457px, 241.18026px) scale(1, 1);
  }
  3% {
    transform: translate(233.238457px, 241.18026px) scale(1, 1);
  }
  4% {
    transform: translate(233.238457px, 241.18026px) scale(1, 0);
  }
  5% {
    transform: translate(233.238457px, 241.18026px) scale(1, 1);
  }
  10% {
    transform: translate(233.238457px, 241.18026px) scale(1, 1);
  }
  11% {
    transform: translate(233.238457px, 241.18026px) scale(1, 0);
  }
  11.5% {
    transform: translate(233.238457px, 241.18026px) scale(1, 1);
  }
  100% {
    transform: translate(233.238457px, 241.18026px) scale(1, 1);
  }
}
#eSzo8q6LFgZ24_ts {
  animation: eSzo8q6LFgZ24_ts__ts 10000ms linear infinite normal forwards;
}
@keyframes eSzo8q6LFgZ24_ts__ts {
  0% {
    transform: translate(112.096725px, 241.207603px) scale(1, 1);
  }
  3% {
    transform: translate(112.096725px, 241.207603px) scale(1, 1);
  }
  4% {
    transform: translate(112.096725px, 241.207603px) scale(1, 0);
  }
  5% {
    transform: translate(112.096725px, 241.207603px) scale(1, 1);
  }
  10% {
    transform: translate(112.096725px, 241.207603px) scale(1, 1);
  }
  11% {
    transform: translate(112.096725px, 241.207603px) scale(1, 0);
  }
  11.5% {
    transform: translate(112.096725px, 241.207603px) scale(1, 1);
  }
  100% {
    transform: translate(112.096725px, 241.207603px) scale(1, 1);
  }
}
]]></style>
<g><path d="M170.4,21.4c1.3,0,2.7.1,4,.1c2.8-3.5,6.1-6.6,9.5-9.5-3.2-4.8-6.9-8.6-11.5-12-4.5,3.3-8.3,7.3-11.6,11.8c3.4,3.1,6.6,6.2,9.6,9.6Z" fill="#fdfdfd"/><path d="M156.7,36.4c2.5-4.3,5.8-8,9.2-11.7-3.3-3.8-6.3-7.4-11.2-9.1-4.3,5.9-5.5,11.9-4.2,19c2,.7,4.1,1.2,6.2,1.8Z" fill="#fdfdfd"/><path d="M178.9,24.5c3.4,3.8,6.4,7.7,9.2,12c2.1-.6,4.2-1.3,6.2-1.9c1.1-7.7-.1-13.3-4.7-19.6-4.1,2.6-7.6,5.8-10.7,9.5Z" fill="#fdfdfd"/><path d="M183,38.8c-3-4.5-5.7-8.6-10.6-11.4-5,2.5-7.7,7-10.8,11.4c4.3,3.4,7.9,7,10.8,11.8c2.7-5,6.2-8.5,10.6-11.8Z" fill="#fdfdfd"/><path d="M168.4,56.2c-3.5-9.1-9.3-14-18.9-15.8c4,8.8,9.5,13.4,18.9,15.8Z" fill="#fdfdfd"/><path d="M175.9,56.3c9.7-2.5,15.2-6.8,19.3-16-9.4,1.5-15.8,7.4-19.3,16Z" fill="#fdfdfd"/><path d="M93.6,68.1c3.6-3.4,7.4-6.3,11.6-9.1-.6-2-1.2-4-2-5.9-6-2.8-14.1.7-19.3,3.9c2.6,4.7,5.3,8,9.7,11.1Z" fill="#fdfdfd"/><path d="M124.9,70.9c-1.5-8.8-7.4-15.5-15.7-18.6c1.4,8.9,7.5,15.3,15.7,18.6Z" fill="#fdfdfd"/><path d="M235.8,51.7c-8.4,3.7-14.4,9.7-15.8,19.1c8.4-3.4,13.8-10.3,15.8-19.1Z" fill="#fdfdfd"/><path d="M260.7,57c-5.7-3.5-11.6-5.7-18.3-4.5-2,1-2.2,4.5-2.9,6.4c4.1,2.9,7.9,6,11.5,9.4c4.2-3.4,6.9-6.7,9.7-11.3Z" fill="#fdfdfd"/><path d="M130.1,71.3c-.2,1.8-.3,3.7-.5,5.5c7.6,1.8,14.6,2.6,21.4,6.8c8.5,4.6,14.9,12.6,17.2,22c2.5,8.6,3.1,17,4.3,25.8c3.1-13.7,2.8-30,12.5-41.1c7.8-9.2,18.5-12.1,30.1-12.9-.1-1.6-.2-3.3-.3-5-11.8-.6-23.3,3.5-31.8,11.7-2.9,2.9-5.1,6.2-7.5,9.5-.1-10.7,0-21.5,0-32.2-2-.4-4-.7-6.1-1.1c0,11.2-.2,22.5.2,33.7-8.7-13.3-23.6-22.1-39.5-22.7Z" fill="#fdfdfd"/><path d="M80.5,86.1c3.2-3.4,6.5-6.6,9.9-9.7c0-1.3-.1-2.5-.1-3.8-3.5-2.9-6.6-6.2-9.7-9.5-4.7,3.1-8.4,7.1-11.8,11.6c3.5,4.5,7.1,8,11.7,11.4Z" fill="#fdfdfd"/><path d="M254.3,72.7c0,1.3.1,2.6.1,3.9c3.3,2.9,6.1,6.2,9.2,9.2c5.3-2.3,8.6-6.6,12.1-11-3.4-4.8-7-8.3-12-11.4-3.1,3.1-6,6.4-9.4,9.3Z" fill="#fdfdfd"/><path d="M95.8,74.9c3.5,4.2,7.2,7.4,11.8,10.5c3.5-4.4,7.1-7.7,11.9-10.6-4.8-2.7-8.3-6.5-11.9-10.5-4.9,2.5-8.4,6.3-11.8,10.6Z" fill="#fdfdfd"/><path d="M248.8,74.8c-3.3-4.2-7-7.9-11.8-10.5-3.5,4-7.2,7.4-11.7,10.4c4.7,2.9,8.3,6.4,11.8,10.6c4.6-3,8.3-6.2,11.7-10.5Z" fill="#fdfdfd"/><path d="M115.2,84.7c-3.5,3.7-4.8,8.2-6.2,13c8.5-3.9,14-9.8,16-19.1-3.6,1.6-7.1,3.1-9.8,6.1Z" fill="#fdfdfd"/><path d="M219.9,78.8c1.2,8.7,7.4,15.2,15.3,18.6-.9-9-7.1-15.6-15.3-18.6Z" fill="#fdfdfd"/><path d="M105.1,90.3c-4.1-2.8-7.9-5.8-11.7-9.1-3.6,3.2-6.9,6.1-9.1,10.5c5.4,5.6,11.8,5.3,19,5.1.7-2.2,1.3-4.4,1.8-6.5Z" fill="#fdfdfd"/><path d="M250.9,81.3c-3.8,3.2-7.5,6.4-11.6,9.1.7,2.1,1.3,4.2,2.2,6.2c7.4,1.1,12.8-.2,18.9-4.3-2.4-4.6-5.2-8-9.5-11Z" fill="#fdfdfd"/><path d="M277.7,181.7c-4.4-14.1-9.7-30.1-21.2-40.1-15.4-13.1-34.5-19.9-54.1-23.8-5.5-1-11.3-2.2-17-2.1-1.7,6.2-2.8,12.6-4.1,18.9c1.6,1.9,3.4,3.8,4.7,5.9-.2,4.9-2.3,9.9-3.5,14.6-2.1,7-3.5,14.3-6.2,21.1-1.3-7.7-2.2-15.5-3.3-23.2-.2-6.4-8.5-9-8.9-15.3-1.3-7.4-2.1-14.9-3.7-22.3-18.7,1.4-37.6,6.1-54.4,14.5-12.5,6.2-23.3,14.8-29.6,27.5-17.2,35.5-17.9,75.8-11.5,114c2.4,10.6,4.4,24.4,12.4,32.4c7.9,8.6,22,11.5,30.2,18.6c6.6,5.6,7.6,14.2,10.1,22c3.1-.4,6.2-.9,9.3-1.4-.4-3.5-.9-7-1.3-10.5c2.7-.5,5.3-1,7.9-1.4.6,3.6,1.1,7.3,1.7,10.9c4.2-.5,8.3-1,12.5-1.5-.2-3.5-.3-7.1-.4-10.6c2.6-.3,5.1-.6,7.7-.9.3,3.5.7,7.1,1.1,10.6c4.1-.2,8.1-.3,12.2-.4c0-3.7,0-7.4.1-11c2.6,0,5.2,0,7.8-.1.3,3.7.5,7.5.6,11.2c4.1.1,8.2.2,12.3.2.2-3.5.4-7,.7-10.5c2.4.1,4.8.2,7.1.6c1.9,2.8.6,7.6.5,10.8c4.1.4,8.1.9,12.2,1.4.8-3.6,1.5-7.2,2.3-10.7c2.6.4,5.1.8,7.6,1.3-.4,3.5-.9,7-1.5,10.5c3.2,1,6.3,1.6,9.4,2.2c2-6.7,3-14.8,8-20.1c8.5-9.5,23.6-11.8,32.3-20.8c4.8-4.6,6.9-11.1,8.8-17.2c4-14.1,5.9-28.4,6.9-43.1c1.2-20.8-.3-42-5.7-62.2ZM191.2,296.4c-1,2.4-3.1,5.9-6.1,5.6-4.9-1.7-7.1-7.9-11.1-11-3.9-.6-5.3,3.2-7.5,5.6-1.7,2.2-4.9,5.8-8,5.2-4.5-2.2-5.6-8.7-5.2-13.2.9-7.6,4-15.1,6.9-22.2c3.3-6.6,6.5-13.6,12.4-18.2c4.9,3.7,7.6,8.8,10.5,14.1c3.5,7,6.4,14.4,8.1,22c.6,4.3,1.8,8,0,12.1Z" fill="#fff"/><g id="eSzo8q6LFgZ23_ts" transform="translate(233.238457,241.18026) scale(1,1)"><path d="M267.7,242.6c-.6,8.8-3.6,18-8.4,25.5-6.4,9.9-17.8,16.2-29.7,15.9-8.9.4-17-5.3-21.7-12.6-5.4-7.9-7.2-16.8-8.5-26.1-1.3-7-.4-14.5.8-21.5c3.5-12.8,14.6-22.5,27.5-24.8c7.1-1.2,14-1.1,20.1,3.2c12.6,9.2,20.3,24.8,19.9,40.4Z" transform="translate(-233.238457,-241.18026)"/></g><g id="eSzo8q6LFgZ24_ts" transform="translate(112.096725,241.207603) scale(1,1)"><path d="M146.5,237c0,10.4-1.7,22.1-7.2,31.1-5.8,9.1-17.2,16.7-28.3,15.6-15.3-1.2-27.9-14.5-31.6-28.8-3.2-12.8-2.2-27.5,5-38.8c5.9-8.8,15.5-15.3,25.9-17c11.6-2.3,23.2,3.7,29.5,13.4c4.5,7.1,7,15.9,6.7,24.5Z" transform="translate(-112.096725,-241.207603)"/></g></g></svg>
