<svg xmlns="http://www.w3.org/2000/svg" width="58.633" height="90.9" viewBox="0 0 58.633 90.9">
  <g id="logo-icon" transform="translate(-61.287)">
    <g id="Group_640" data-name="Group 640" transform="translate(63.292)">
      <g id="Group_637" data-name="Group 637" transform="translate(21.257)">
        <path id="Path_3371" data-name="Path 3371" d="M163.429,5.637c.342,0,.711.026,1.054.026a18.719,18.719,0,0,1,2.5-2.5A12.351,12.351,0,0,0,163.955,0,14.25,14.25,0,0,0,160.9,3.108,32.719,32.719,0,0,1,163.429,5.637Z" transform="translate(-157.924)" fill="#fff"/>
        <path id="Path_3372" data-name="Path 3372" d="M151.867,21.079A18.091,18.091,0,0,1,154.29,18a7.059,7.059,0,0,0-2.95-2.4,6.088,6.088,0,0,0-1.106,5C150.761,20.789,151.314,20.921,151.867,21.079Z" transform="translate(-149.971 -11.491)" fill="#fff"/>
        <path id="Path_3373" data-name="Path 3373" d="M179,17.5a25.763,25.763,0,0,1,2.423,3.161c.553-.158,1.106-.342,1.633-.5A6.367,6.367,0,0,0,181.818,15,12.166,12.166,0,0,0,179,17.5Z" transform="translate(-171.256 -11.049)" fill="#fff"/>
        <path id="Path_3374" data-name="Path 3374" d="M167.337,30.4a8.472,8.472,0,0,0-2.792-3,8.193,8.193,0,0,0-2.845,3,11.456,11.456,0,0,1,2.845,3.108A9.32,9.32,0,0,1,167.337,30.4Z" transform="translate(-158.513 -20.183)" fill="#fff"/>
        <path id="Path_3375" data-name="Path 3375" d="M154.578,44.562A6.071,6.071,0,0,0,149.6,40.4,6.777,6.777,0,0,0,154.578,44.562Z" transform="translate(-149.6 -29.759)" fill="#fff"/>
        <path id="Path_3376" data-name="Path 3376" d="M176,44.514a6.751,6.751,0,0,0,5.084-4.214A6.433,6.433,0,0,0,176,44.514Z" transform="translate(-169.046 -29.685)" fill="#fff"/>
      </g>
      <path id="Path_3377" data-name="Path 3377" d="M129.832,63.2c-.053.474-.079.975-.132,1.449,2,.474,3.846.685,5.637,1.791a9.12,9.12,0,0,1,4.531,5.795,45.736,45.736,0,0,1,1.133,6.8c.817-3.609.738-7.9,3.293-10.826,2.055-2.423,4.873-3.187,7.928-3.4-.026-.421-.053-.869-.079-1.317a11.19,11.19,0,0,0-8.376,3.082,20.12,20.12,0,0,0-1.976,2.5c-.026-2.818,0-5.663,0-8.482-.527-.105-1.054-.184-1.607-.29,0,2.95-.053,5.927.053,8.877A13.2,13.2,0,0,0,129.832,63.2Z" transform="translate(-113.685 -44.417)" fill="#fff"/>
      <g id="Group_638" data-name="Group 638" transform="translate(0 13.717)">
        <path id="Path_3378" data-name="Path 3378" d="M86.555,56.3a22.7,22.7,0,0,1,3.055-2.4,15.4,15.4,0,0,0-.527-1.554c-1.58-.738-3.714.184-5.084,1.027A8.041,8.041,0,0,0,86.555,56.3Z" transform="translate(-80.023 -52.077)" fill="#fff"/>
        <path id="Path_3379" data-name="Path 3379" d="M113.435,57.2a6.3,6.3,0,0,0-4.135-4.9A6.34,6.34,0,0,0,113.435,57.2Z" transform="translate(-98.659 -52.241)" fill="#fff"/>
        <path id="Path_3380" data-name="Path 3380" d="M71.982,69.158c.843-.9,1.712-1.738,2.608-2.555,0-.342-.026-.659-.026-1a28.643,28.643,0,0,1-2.555-2.5A12.682,12.682,0,0,0,68.9,66.155,15.139,15.139,0,0,0,71.982,69.158Z" transform="translate(-68.9 -60.197)" fill="#fff"/>
        <path id="Path_3381" data-name="Path 3381" d="M95.9,67.092a14.182,14.182,0,0,0,3.108,2.766,11.333,11.333,0,0,1,3.134-2.792A12.59,12.59,0,0,1,99.008,64.3,9.55,9.55,0,0,0,95.9,67.092Z" transform="translate(-88.788 -61.081)" fill="#fff"/>
        <path id="Path_3382" data-name="Path 3382" d="M110.733,80.207a7.805,7.805,0,0,0-1.633,3.424,6.868,6.868,0,0,0,4.214-5.031A7.112,7.112,0,0,0,110.733,80.207Z" transform="translate(-98.511 -71.614)" fill="#fff"/>
        <path id="Path_3383" data-name="Path 3383" d="M89.879,83.6A33.353,33.353,0,0,1,86.8,81.2a9.284,9.284,0,0,0-2.4,2.766c1.422,1.475,3.108,1.4,5,1.343C89.589,84.73,89.747,84.15,89.879,83.6Z" transform="translate(-80.317 -73.529)" fill="#fff"/>
      </g>
      <g id="Group_639" data-name="Group 639" transform="translate(39.8 13.618)">
        <path id="Path_3384" data-name="Path 3384" d="M224.262,51.7a6.422,6.422,0,0,0-4.162,5.031A6.856,6.856,0,0,0,224.262,51.7Z" transform="translate(-220.074 -51.7)" fill="#fff"/>
        <path id="Path_3385" data-name="Path 3385" d="M245.184,53.442a6.729,6.729,0,0,0-4.82-1.185c-.527.263-.579,1.185-.764,1.686a27.567,27.567,0,0,1,3.029,2.476A10.652,10.652,0,0,0,245.184,53.442Z" transform="translate(-234.437 -52.046)" fill="#fff"/>
        <path id="Path_3386" data-name="Path 3386" d="M254.4,65.85c0,.342.026.685.026,1.027.869.764,1.607,1.633,2.423,2.423a8.629,8.629,0,0,0,3.187-2.9,10.419,10.419,0,0,0-3.161-3C256.059,64.217,255.3,65.086,254.4,65.85Z" transform="translate(-245.339 -60.318)" fill="#fff"/>
        <path id="Path_3387" data-name="Path 3387" d="M231.59,67.066a10.1,10.1,0,0,0-3.108-2.766,15.31,15.31,0,0,1-3.082,2.739,12.575,12.575,0,0,1,3.108,2.792A12.354,12.354,0,0,0,231.59,67.066Z" transform="translate(-223.978 -60.981)" fill="#fff"/>
        <path id="Path_3388" data-name="Path 3388" d="M220,78.8a6.384,6.384,0,0,0,4.03,4.9A5.856,5.856,0,0,0,220,78.8Z" transform="translate(-220 -71.662)" fill="#fff"/>
        <path id="Path_3389" data-name="Path 3389" d="M242.455,81.3a33.017,33.017,0,0,1-3.055,2.4,17.136,17.136,0,0,0,.579,1.633,6.42,6.42,0,0,0,4.978-1.133A7.59,7.59,0,0,0,242.455,81.3Z" transform="translate(-234.29 -73.503)" fill="#fff"/>
      </g>
    </g>

    <path id="Path_3390" data-name="Path 3390" d="M118.317,132.864c-1.159-3.714-2.555-7.928-5.584-10.562-4.056-3.451-9.087-5.242-14.25-6.269A23.134,23.134,0,0,0,94,115.479c-.448,1.633-.738,3.319-1.08,4.978a13.925,13.925,0,0,1,1.238,1.554,19.471,19.471,0,0,1-.922,3.846c-.553,1.844-.922,3.767-1.633,5.558-.342-2.028-.579-4.083-.869-6.111-.053-1.686-2.239-2.371-2.344-4.03-.342-1.949-.553-3.925-.975-5.874a38.727,38.727,0,0,0-14.329,3.819,16.4,16.4,0,0,0-7.8,7.244c-4.531,9.351-4.715,19.966-3.029,30.028.632,2.792,1.159,6.427,3.266,8.534,2.081,2.265,5.795,3.029,7.955,4.9,1.738,1.475,2,3.74,2.66,5.795.817-.105,1.633-.237,2.45-.369-.105-.922-.237-1.844-.342-2.766.711-.132,1.4-.263,2.081-.369.158.948.29,1.923.448,2.871,1.106-.132,2.186-.263,3.293-.4-.053-.922-.079-1.87-.105-2.792.685-.079,1.343-.158,2.028-.237.079.922.184,1.87.29,2.792,1.08-.053,2.134-.079,3.214-.105,0-.975,0-1.949.026-2.9.685,0,1.37,0,2.055-.026.079.975.132,1.976.158,2.95,1.08.026,2.16.053,3.24.053.053-.922.105-1.844.184-2.766a14.519,14.519,0,0,1,1.87.158c.5.738.158,2,.132,2.845,1.08.105,2.134.237,3.214.369.211-.948.4-1.9.606-2.818.685.105,1.343.211,2,.342q-.158,1.383-.4,2.766a22.332,22.332,0,0,0,2.476.579c.527-1.765.79-3.9,2.107-5.294,2.239-2.5,6.216-3.108,8.508-5.479A10.2,10.2,0,0,0,118,160.6a54.869,54.869,0,0,0,1.817-11.353A52.014,52.014,0,0,0,118.317,132.864ZM95.532,163.076c-.263.632-.817,1.554-1.607,1.475-1.291-.448-1.87-2.081-2.924-2.9-1.027-.158-1.4.843-1.976,1.475-.448.579-1.291,1.528-2.107,1.37-1.185-.579-1.475-2.292-1.37-3.477a23.156,23.156,0,0,1,1.817-5.848c.869-1.738,1.712-3.582,3.266-4.794a10.727,10.727,0,0,1,2.766,3.714,25.539,25.539,0,0,1,2.134,5.795C95.69,161.021,96.007,162,95.532,163.076Z" transform="translate(0 -85.003)" fill="#fff"/>

	<mask>

	   <path id="Path_3390" data-name="Path 3390" d="M118.317,132.864c-1.159-3.714-2.555-7.928-5.584-10.562-4.056-3.451-9.087-5.242-14.25-6.269A23.134,23.134,0,0,0,94,115.479c-.448,1.633-.738,3.319-1.08,4.978a13.925,13.925,0,0,1,1.238,1.554,19.471,19.471,0,0,1-.922,3.846c-.553,1.844-.922,3.767-1.633,5.558-.342-2.028-.579-4.083-.869-6.111-.053-1.686-2.239-2.371-2.344-4.03-.342-1.949-.553-3.925-.975-5.874a38.727,38.727,0,0,0-14.329,3.819,16.4,16.4,0,0,0-7.8,7.244c-4.531,9.351-4.715,19.966-3.029,30.028.632,2.792,1.159,6.427,3.266,8.534,2.081,2.265,5.795,3.029,7.955,4.9,1.738,1.475,2,3.74,2.66,5.795.817-.105,1.633-.237,2.45-.369-.105-.922-.237-1.844-.342-2.766.711-.132,1.4-.263,2.081-.369.158.948.29,1.923.448,2.871,1.106-.132,2.186-.263,3.293-.4-.053-.922-.079-1.87-.105-2.792.685-.079,1.343-.158,2.028-.237.079.922.184,1.87.29,2.792,1.08-.053,2.134-.079,3.214-.105,0-.975,0-1.949.026-2.9.685,0,1.37,0,2.055-.026.079.975.132,1.976.158,2.95,1.08.026,2.16.053,3.24.053.053-.922.105-1.844.184-2.766a14.519,14.519,0,0,1,1.87.158c.5.738.158,2,.132,2.845,1.08.105,2.134.237,3.214.369.211-.948.4-1.9.606-2.818.685.105,1.343.211,2,.342q-.158,1.383-.4,2.766a22.332,22.332,0,0,0,2.476.579c.527-1.765.79-3.9,2.107-5.294,2.239-2.5,6.216-3.108,8.508-5.479A10.2,10.2,0,0,0,118,160.6a54.869,54.869,0,0,0,1.817-11.353A52.014,52.014,0,0,0,118.317,132.864ZM95.532,163.076c-.263.632-.817,1.554-1.607,1.475-1.291-.448-1.87-2.081-2.924-2.9-1.027-.158-1.4.843-1.976,1.475-.448.579-1.291,1.528-2.107,1.37-1.185-.579-1.475-2.292-1.37-3.477a23.156,23.156,0,0,1,1.817-5.848c.869-1.738,1.712-3.582,3.266-4.794a10.727,10.727,0,0,1,2.766,3.714,25.539,25.539,0,0,1,2.134,5.795C95.69,161.021,96.007,162,95.532,163.076Z" transform="translate(0 -85.003)" fill="white"/>

	   
    <g id="Group_641" data-name="Group 641" transform="translate(65.628 52.243)">
      <path id="Path_3391" data-name="Path 3391" d="M95.9,208.721a16.049,16.049,0,0,1-1.9,8.192c-1.528,2.4-4.531,4.4-7.454,4.109-4.03-.316-7.349-3.819-8.324-7.586a13.308,13.308,0,0,1,1.317-10.22,10.442,10.442,0,0,1,6.822-4.478,7.675,7.675,0,0,1,7.77,3.53A11.519,11.519,0,0,1,95.9,208.721Z" transform="translate(-77.769 -198.538)" fill='black'/>
      <path id="Path_3392" data-name="Path 3392" d="M217.02,210a14.614,14.614,0,0,1-2.213,6.717,9.171,9.171,0,0,1-7.823,4.188,6.738,6.738,0,0,1-5.716-3.319,15.485,15.485,0,0,1-2.239-6.875,16.391,16.391,0,0,1,.211-5.663,9.239,9.239,0,0,1,7.244-6.532,6.784,6.784,0,0,1,5.294.843A13.005,13.005,0,0,1,217.02,210Z" transform="translate(-166.966 -198.341)" fill='black'/>
    </g>



	</mask>

  </g>
</svg>
