<svg xmlns="http://www.w3.org/2000/svg" width="36.003" height="44.406" viewBox="0 0 36.003 44.406">
  <g id="Artwork_3" data-name="Artwork 3" transform="translate(0 0)">
    <g id="Group_24" data-name="Group 24" transform="translate(0 0)">
      <path id="Path_146" data-name="Path 146" d="M15.6,16.882l3.187.066a60.965,60.965,0,0,1,7.476-7.52A36.265,36.265,0,0,0,17.21,0,39.735,39.735,0,0,0,8.08,9.351,86.558,86.558,0,0,1,15.6,16.882Z" transform="translate(0.83)" fill="#69bf4a"/>
      <path id="Path_147" data-name="Path 147" d="M5.608,27.6a50.771,50.771,0,0,1,7.245-9.208c-2.613-3.01-4.94-5.866-8.877-7.168A18.27,18.27,0,0,0,.646,26.239Z" transform="translate(0.026 1.152)" fill="#69bf4a"/>
      <path id="Path_148" data-name="Path 148" d="M20.98,18.236A84.52,84.52,0,0,1,28.214,27.7c1.643-.5,3.286-1,4.929-1.5.9-6.109-.055-10.487-3.705-15.438A37.983,37.983,0,0,0,20.98,18.236Z" transform="translate(2.155 1.105)" fill="#69bf4a"/>
      <path id="Path_149" data-name="Path 149" d="M25.518,28.595c-2.4-3.518-4.5-6.815-8.336-8.965-3.915,1.941-6.054,5.536-8.5,8.976a33.557,33.557,0,0,1,8.5,9.307A27.481,27.481,0,0,1,25.518,28.595Z" transform="translate(0.891 2.016)" fill="#69bf4a"/>
      <path id="Path_150" data-name="Path 150" d="M14.9,41.374C12.108,34.217,7.565,30.336,0,28.88,3.11,35.893,7.443,39.488,14.9,41.374Z" transform="translate(0 2.966)" fill="#69bf4a"/>
      <path id="Path_151" data-name="Path 151" d="M18.84,41.446c7.631-1.985,11.986-5.359,15.228-12.626C26.7,30.055,21.641,34.664,18.84,41.446Z" transform="translate(1.935 2.96)" fill="#69bf4a"/>
    </g>
  </g>
</svg>
